<svg xmlns="http://www.w3.org/2000/svg" viewBox="0 0 1704.01 1653.92"><defs><style>.cls-1,.cls-2{fill:none;stroke:#ff2fc1;stroke-miterlimit:10;}.cls-1{stroke-width:200px;}.cls-2{stroke-width:250px;}</style></defs><title>Asset 4</title><g id="Layer_2" data-name="Layer 2"><g id="Layer_1-2" data-name="Layer 1"><path class="cls-1" d="M1782.69,418"/><path class="cls-2" d="M104.1,1202.51c184.48,277.54,285.43,342.7,342.94,323.23,171.43-58,12.92-887.15,146.05-917C628,601,693.91,681.44,825.78,842.41c120.88,147.54,205.58,274.72,275.7,258.17,23.24-5.49,47.24-38,19-470.06-17.29-265-42.4-499,1.49-505.44l.5-.06a5.54,5.54,0,0,1,.84,0c32.94,2.1,216.4,317,216.4,317,48.91,83.57,136.81,186.52,307.88,272.95"/></g></g></svg>